# xmcd
#
# Track frame offsets:
#	150
#	10484
#	23304
#	36565
#	49210
#	61845
#	74235
#	87427
#	99253
#	110793
#	123502
#	135426
#	148394
#	161860
#	174498
#	187110
#	199183
#	212062
#	225009
#	236771
#	249552
#	262766
#	275430
#
# Disc length: 3830 seconds
#
# Revision: 2
# Processed by: cddbd v1.5.1PL2 Copyright (c) Steve Scherf et al.
# Submitted via: MusicWizard 7.2.0
#
DISCID=540ef417
DTITLE=Acuff, Roy and His Smokey Mountain Boys - Hear The Mighty Rush Of Engine
DYEAR=2001
DGENRE=Dancefloor
TTITLE0=I Couldn't Believe It Was True
TTITLE1=Night Train To Memphis
TTITLE2=Weary Lonesome Blues
TTITLE3=Wreck On The Highway
TTITLE4=The Pale Horse And His Rider
TTITLE5=Eyes Are Watching You
TTITLE6=Steel Guitar Blues
TTITLE7=Wabash Cannon Ball
TTITLE8=Railroad Boomer
TTITLE9=Mule Skinner Blues
TTITLE10=The Southbound Train
TTITLE11=Walkin' In My Sleep
TTITLE12=Tennesee Waltz
TTITLE13=The Automobile Of Life
TTITLE14=Honky Tonk Mamas
TTITLE15=Freight Train Blues
TTITLE16=Lonesome Old River Blues
TTITLE17=Our Own Jole Blond
TTITLE18=Fireball Mail
TTITLE19=The Precious Jewel
TTITLE20=Great Speckled Bird
TTITLE21=Worried Mind
TTITLE22=The Devil's Train
EXTD=
EXTT0=
EXTT1=
EXTT2=
EXTT3=
EXTT4=
EXTT5=
EXTT6=
EXTT7=
EXTT8=
EXTT9=
EXTT10=
EXTT11=
EXTT12=
EXTT13=
EXTT14=
EXTT15=
EXTT16=
EXTT17=
EXTT18=
EXTT19=
EXTT20=
EXTT21=
EXTT22=
PLAYORDER=
